:FULLY-SPECIFIED
:FORCE-ALL-JOINTS-BE-3DOF
:DEGREES
816
root -3.2432 14.872 -38.8466 391.312 -55.5311 332.188
lfemur -36.489 17.6393 11.6201
ltibia 46.5705 0 0
lfoot 15.5355 16.5067 0
ltoes -6.71994 0 0
rfemur -20.7127 -17.5677 13.3122
rtibia 64.2243 0 0
rfoot -25.5521 -28.0358 0
rtoes -19.4113 0 0
lowerback 15.9854 2.54142 3.5862
upperback -1.17879 4.22816 2.32135
thorax -10.2087 1.86583 -0.538708
lowerneck -5.06739 8.99305 3.58167
upperneck 4.24499 12.0523 -4.88687
head 2.87999 5.91046 -1.65751
lclavicle -4.02317e-14 -3.44408e-15 0
lhumerus 2.06787 -26.4693 67.2283
lradius 103.372 0 0
lwrist 4.37584 0 0
lhand -25.094 47.4887 0
lfingers 7.12502 0 0
lthumb 1.4204 77.4765 0
rclavicle -4.02317e-14 -3.44408e-15 0
rhumerus -45.2261 48.1335 -90.3593
rradius 116.369 0 0
rwrist -17.3417 0 0
rhand 25.7817 -10.7619 0
rfingers 7.12502 0 0
rthumb 49.5761 -29.7062 0
817
root -3.19313 14.8771 -38.8492 390.496 -55.5004 333.027
lfemur -36.3495 17.6149 11.6695
ltibia 46.4328 0 0
lfoot 15.6445 16.656 0
ltoes -6.76836 0 0
rfemur -20.8831 -17.6341 13.2997
rtibia 64.3197 0 0
rfoot -25.5389 -28.0279 0
rtoes -19.4236 0 0
lowerback 15.9942 2.55058 3.553
upperback -1.18356 4.23464 2.29929
thorax -10.2193 1.87025 -0.546037
lowerneck -5.0732 9.01884 3.60593
upperneck 4.24802 12.0874 -4.92979
head 2.88677 5.92711 -1.67312
lclavicle -4.02162e-14 -3.67185e-15 0
lhumerus 1.62964 -26.7707 66.9188
lradius 103.966 0 0
lwrist 4.98503 0 0
lhand -25.0681 47.5415 0
lfingers 7.12502 0 0
lthumb 1.44536 77.5292 0
rclavicle -4.02162e-14 -3.67185e-15 0
rhumerus -45.0358 48.3083 -90.3263
rradius 116.358 0 0
rwrist -17.0003 0 0
rhand 26.0454 -10.4958 0
rfingers 7.12502 0 0
rthumb 49.8251 -29.3743 0
818
root -3.14359 14.8821 -38.8518 389.688 -55.47 333.857
lfemur -36.2115 17.5909 11.7184
ltibia 46.2965 0 0
lfoot 15.7521 16.8032 0
ltoes -6.81694 0 0
rfemur -21.0515 -17.6999 13.2872
rtibia 64.414 0 0
rfoot -25.5257 -28.0202 0
rtoes -19.4359 0 0
lowerback 16.003 2.5597 3.52016
upperback -1.18828 4.24112 2.27743
thorax -10.2297 1.87465 -0.553345
lowerneck -5.07896 9.04431 3.62986
upperneck 4.25097 12.1221 -4.97214
head 2.89345 5.94354 -1.68853
lclavicle -4.01969e-14 -3.8972e-15 0
lhumerus 1.19583 -27.0681 66.6129
lradius 104.552 0 0
lwrist 5.58673 0 0
lhand -25.0434 47.5933 0
lfingers 7.12502 0 0
lthumb 1.46927 77.5809 0
rclavicle -4.01969e-14 -3.8972e-15 0
rhumerus -44.8484 48.4802 -90.2938
rradius 116.347 0 0
rwrist -16.6647 0 0
rhand 26.3055 -10.2325 0
rfingers 7.12502 0 0
rthumb 50.0707 -29.0463 0
819
root -3.0946 14.887 -38.8543 388.889 -55.4397 334.677
lfemur -36.075 17.5671 11.7666
ltibia 46.1617 0 0
lfoot 15.8583 16.9484 0
ltoes -6.86567 0 0
rfemur -21.2178 -17.7651 13.2747
rtibia 64.5072 0 0
rfoot -25.5126 -28.0127 0
rtoes -19.4482 0 0
lowerback 16.0116 2.56877 3.48766
upperback -1.19296 4.2476 2.25577
thorax -10.24 1.87903 -0.560631
lowerneck -5.08468 9.06945 3.65348
upperneck 4.25385 12.1564 -5.01391
head 2.90003 5.95976 -1.70372
lclavicle -4.01737e-14 -4.12006e-15 0
lhumerus 0.766508 -27.3612 66.3105
lradius 105.13 0 0
lwrist 6.1808 0 0
lhand -25.0197 47.6439 0
lfingers 7.12502 0 0
lthumb 1.49212 77.6315 0
rclavicle -4.01737e-14 -4.12006e-15 0
rhumerus -44.6639 48.6491 -90.2618
rradius 116.336 0 0
rwrist -16.3352 0 0
rhand 26.5619 -9.97194 0
rfingers 7.12502 0 0
rthumb 50.3129 -28.7223 0
820
root -3.04618 14.8919 -38.8568 388.099 -55.4096 335.488
lfemur -35.94 17.5438 11.8142
ltibia 46.0284 0 0
lfoot 15.963 17.0914 0
ltoes -6.91455 0 0
rfemur -21.3821 -17.8295 13.2623
rtibia 64.5992 0 0
rfoot -25.4996 -28.0052 0
rtoes -19.4604 0 0
lowerback 16.0201 2.5778 3.45553
upperback -1.1976 4.25406 2.2343
thorax -10.2502 1.88339 -0.567894
lowerneck -5.09035 9.09425 3.67676
upperneck 4.25665 12.1902 -5.0551
head 2.90651 5.97577 -1.71869
lclavicle -4.01467e-14 -4.34036e-15 0
lhumerus 0.341779 -27.65 66.0117
lradius 105.701 0 0
lwrist 6.76709 0 0
lhand -24.9972 47.6934 0
lfingers 7.12502 0 0
lthumb 1.5139 77.6809 0
rclavicle -4.01467e-14 -4.34036e-15 0
rhumerus -44.4825 48.8149 -90.2303
rradius 116.326 0 0
rwrist -16.0116 0 0
rhand 26.8146 -9.71426 0
rfingers 7.12502 0 0
rthumb 50.5516 -28.4022 0
821
root -2.99832 14.8967 -38.8592 387.318 -55.3797 336.29
lfemur -35.8065 17.5208 11.8612
ltibia 45.8966 0 0
lfoot 16.0663 17.2322 0
ltoes -6.96358 0 0
rfemur -21.5441 -17.8933 13.2499
rtibia 64.6901 0 0
rfoot -25.4867 -27.9979 0
rtoes -19.4726 0 0
lowerback 16.0284 2.58677 3.42377
upperback -1.20219 4.26052 2.21304
thorax -10.2602 1.88773 -0.575135
lowerneck -5.09596 9.1187 3.6997
upperneck 4.25938 12.2235 -5.09568
head 2.91288 5.99154 -1.73345
lclavicle -4.01156e-14 -4.55804e-15 0
lhumerus -0.0782716 -27.9345 65.7166
lradius 106.262 0 0
lwrist 7.34544 0 0
lhand -24.9758 47.7417 0
lfingers 7.12502 0 0
lthumb 1.53459 77.7291 0
rclavicle -4.01156e-14 -4.55804e-15 0
rhumerus -44.3042 48.9776 -90.1993
rradius 116.316 0 0
rwrist -15.6943 0 0
rhand 27.0634 -9.45951 0
rfingers 7.12502 0 0
rthumb 50.7867 -28.0864 0
